<svg xmlns="http://www.w3.org/2000/svg" viewBox="0 0 683.65 500"><defs><style>.cls-1{fill:#ffc66d;}.cls-2{fill:#8ea945;}.cls-3,.cls-6,.cls-7{fill:#618834;}.cls-4{font-size:70px;fill:#dd902f;font-family:Signika-Bold, Signika;font-weight:700;letter-spacing:0em;}.cls-5{letter-spacing:0em;}.cls-6{letter-spacing:0.03em;}.cls-7{letter-spacing:-0.01em;}</style></defs><g id="OBJECTS"><path class="cls-1" d="M180.73,189.93l1.69,4.48a.88.88,0,0,0,.52.53l4.49,1.69a.89.89,0,0,1,0,1.67L182.94,200a.89.89,0,0,0-.52.52L180.73,205a.89.89,0,0,1-1.67,0l-1.69-4.49a.89.89,0,0,0-.52-.52l-4.49-1.69a.89.89,0,0,1,0-1.67l4.49-1.69a.88.88,0,0,0,.52-.53l1.69-4.48A.89.89,0,0,1,180.73,189.93Z"/><path class="cls-1" d="M265.39,287.85l1.69,4.49a.89.89,0,0,0,.52.52l4.49,1.69a.9.9,0,0,1,0,1.68l-4.49,1.68a.91.91,0,0,0-.52.53l-1.69,4.48a.89.89,0,0,1-1.67,0L262,298.44a.9.9,0,0,0-.53-.53L257,296.23a.9.9,0,0,1,0-1.68l4.48-1.69a.88.88,0,0,0,.53-.52l1.69-4.49A.89.89,0,0,1,265.39,287.85Z"/><path class="cls-1" d="M234.37,194.31l1,2.77a.59.59,0,0,0,.32.32l2.78,1a.56.56,0,0,1,0,1l-2.78,1a.59.59,0,0,0-.32.32l-1,2.77a.56.56,0,0,1-1,0l-1-2.77a.53.53,0,0,0-.32-.32l-2.77-1a.56.56,0,0,1,0-1l2.77-1a.53.53,0,0,0,.32-.32l1-2.77A.56.56,0,0,1,234.37,194.31Z"/><path class="cls-1" d="M148.53,289.69l1.22,3.26a.65.65,0,0,0,.38.38l3.27,1.23a.65.65,0,0,1,0,1.22L150.13,297a.65.65,0,0,0-.38.38l-1.22,3.26a.65.65,0,0,1-1.22,0l-1.23-3.26a.62.62,0,0,0-.38-.38l-3.26-1.23a.65.65,0,0,1,0-1.22l3.26-1.23a.62.62,0,0,0,.38-.38l1.23-3.26A.65.65,0,0,1,148.53,289.69Z"/><path class="cls-2" d="M284.94,213.71a3.65,3.65,0,0,0-5-2.93l-15,6.18c-9.1,3.75-18.27,7.52-26.49,12.95a78.3,78.3,0,0,0-33.83,53.66c-.71,5-.83,9.75.18,13.56a9.87,9.87,0,0,1,.64-.89c4.32-5.16,23.48-23.39,30.35-29.89-2.49-3.25-2.68-7.81.63-12.25,4-5.44,13.51-11,17.73-7.78s1.61,13.9-2.44,19.33c-3.35,4.5-7.81,5.56-11.65,4-5.24,7.12-21.62,29.28-26.34,34.37a8.39,8.39,0,0,1-1.39,1.2,18.66,18.66,0,0,0,7.1.27c14.34-1.86,27.66-10,38-19.86C276.57,267.24,288.12,240,284.94,213.71Z"/><path class="cls-2" d="M189.26,304.83c-3.39-4.45-14.76-23.52-18.62-30l-.21.15a4.7,4.7,0,0,1-6.66-1.12l-1-1.49-8.24-12.19a1.62,1.62,0,0,1,.42-2.22,1.53,1.53,0,0,1,2.18.36l7.53,11.12a1.26,1.26,0,0,0,1.8.3,1.33,1.33,0,0,0,.35-1.84l-7.52-11.12a1.64,1.64,0,0,1,.43-2.23,1.54,1.54,0,0,1,2.18.37L169.41,266a1.27,1.27,0,0,0,1.81.3h0a1.35,1.35,0,0,0,.35-1.84l-7.52-11.12a1.63,1.63,0,0,1,.43-2.23,1.54,1.54,0,0,1,2.18.36l8.24,12.2,1,1.48a5,5,0,0,1-1.3,6.8l-.39.29c4.78,5.51,19,22,22.49,27a30.46,30.46,0,0,0,1.3-10.56,64.64,64.64,0,0,0-22.25-47.26c-6.16-5.27-13.26-9.28-20.3-13.26l-12.28-6.94a2.41,2.41,0,0,0-3.51,1.48c-5.58,21.38,1.13,45.15,15.09,62.3,7.43,9.12,17.49,17.1,29,20.06a14.6,14.6,0,0,0,6.1.45A8.07,8.07,0,0,1,189.26,304.83Z"/><path class="cls-2" d="M212.81,175.21a2,2,0,0,0-3.19.09l-6.77,9.2c-3.9,5.32-7.83,10.67-10.65,16.64a52.11,52.11,0,0,0-.71,42.33c1.89,4.37,4.27,8.05,7.35,9.37-.3-2.29-.5-4.61-.66-6.91a115.43,115.43,0,0,1,.17-18.87,105.82,105.82,0,0,1,3.23-18,67.3,67.3,0,0,1,7.3-17c.22-.36.74-.08.65.3-2.87,11.57-5.44,23.49-6.19,35.42a114.3,114.3,0,0,0,.19,17.06c.22,2.6.59,5.18,1,7.76a14,14,0,0,0,3.06-1.92c7.56-6.08,12.37-15.35,14.84-24.58C227,208.81,224.08,189.07,212.81,175.21Z"/><path class="cls-3" d="M247.87,205.77A20.66,20.66,0,0,0,235.22,211c-2.68,2.49-7.57,10.17-5.28,14.22.39-.9.8-1.79,1.27-2.65A34.5,34.5,0,0,1,235,217a25.43,25.43,0,0,1,5-4.7c.89-.62,1.81-1.21,2.76-1.75a6.28,6.28,0,0,1,2.84-1.17.06.06,0,0,1,.05.09,8.3,8.3,0,0,1-2.17,1.77,27.27,27.27,0,0,0-2.62,2.18,52.57,52.57,0,0,0-4.46,4.62,33.35,33.35,0,0,0-3.63,5.35,31.71,31.71,0,0,0-1.44,3h0c3.41.77,10.72-5,12.51-6.72a21.73,21.73,0,0,0,6.2-11.4A2.09,2.09,0,0,0,247.87,205.77Z"/><path class="cls-3" d="M176.65,224.94a53.55,53.55,0,0,0-3.53-5.08c-1.24-1.61-2.8-3-4-4.61-.12-.15,0-.44.23-.34a20,20,0,0,1,5.06,4.21,32.44,32.44,0,0,1,4.21,5.48,40.83,40.83,0,0,1,4.38,9.6c2.15-4.25-1.24-12.39-3.45-15.36a22.63,22.63,0,0,0-13-8.17,2,2,0,0,0-2.38,1.89,23.49,23.49,0,0,0,4.4,13.81c1.64,2.32,8.88,10.48,12.57,9.56A39.15,39.15,0,0,0,176.65,224.94Z"/><text class="cls-4" transform="translate(302.9 267.4)">s<tspan class="cls-5" x="31.29" y="0">o</tspan><tspan class="cls-6" x="68.04" y="0">f</tspan><tspan class="cls-7" x="94.99" y="0">r</tspan><tspan class="cls-3" x="122.01" y="0">esh</tspan></text></g></svg>