<svg xmlns="http://www.w3.org/2000/svg" viewBox="0 0 392.17 136.68"><defs><style>.cls-1{fill:#ffc66d;}.cls-2{fill:#8ea945;}.cls-3,.cls-6,.cls-7{fill:#618834;}.cls-4{font-size:70px;fill:#dd902f;font-family:Signika-Bold, Signika;font-weight:700;letter-spacing:0em;}.cls-5{letter-spacing:0em;}.cls-6{letter-spacing:0.03em;}.cls-7{letter-spacing:-0.01em;}</style></defs><g id="OBJECTS"><path class="cls-1" d="M44.33,16.84,46,21.32a.91.91,0,0,0,.52.53L51,23.53a.9.9,0,0,1,0,1.68L46.54,26.9a.89.89,0,0,0-.52.52l-1.69,4.49a.9.9,0,0,1-1.68,0L41,27.42a.91.91,0,0,0-.53-.52L36,25.21a.9.9,0,0,1,0-1.68l4.48-1.68a.92.92,0,0,0,.53-.53l1.68-4.48A.9.9,0,0,1,44.33,16.84Z"/><path class="cls-1" d="M129,114.76l1.69,4.49a.89.89,0,0,0,.52.52l4.49,1.69a.89.89,0,0,1,0,1.67l-4.49,1.69a.88.88,0,0,0-.52.53L129,129.83a.9.9,0,0,1-1.68,0l-1.69-4.48a.88.88,0,0,0-.52-.53l-4.49-1.69a.89.89,0,0,1,0-1.67l4.49-1.69a.89.89,0,0,0,.52-.52l1.69-4.49A.9.9,0,0,1,129,114.76Z"/><path class="cls-1" d="M98,21.21,99,24a.56.56,0,0,0,.32.32l2.77,1a.56.56,0,0,1,0,1l-2.77,1a.51.51,0,0,0-.32.32l-1,2.77a.56.56,0,0,1-1,0l-1-2.77a.56.56,0,0,0-.32-.32l-2.78-1a.56.56,0,0,1,0-1l2.78-1a.62.62,0,0,0,.32-.32l1-2.78A.56.56,0,0,1,98,21.21Z"/><path class="cls-1" d="M12.12,116.6l1.23,3.26a.65.65,0,0,0,.38.38L17,121.47a.65.65,0,0,1,0,1.22l-3.27,1.23a.65.65,0,0,0-.38.38l-1.23,3.26a.65.65,0,0,1-1.22,0L9.68,124.3a.65.65,0,0,0-.38-.38L6,122.69a.65.65,0,0,1,0-1.22l3.27-1.23a.65.65,0,0,0,.38-.38l1.22-3.26A.65.65,0,0,1,12.12,116.6Z"/><path class="cls-2" d="M148.53,40.62a3.64,3.64,0,0,0-5-2.93l-15,6.18c-9.1,3.74-18.26,7.52-26.48,13a78.34,78.34,0,0,0-33.84,53.66c-.7,5-.82,9.75.18,13.56a8.36,8.36,0,0,1,.65-.89C73.36,118,92.52,99.76,99.39,93.26,96.9,90,96.7,85.45,100,81c4-5.44,13.52-11,17.74-7.78s1.6,13.9-2.44,19.33c-3.35,4.5-7.82,5.56-11.65,4-5.24,7.12-21.62,29.28-26.34,34.36a8.13,8.13,0,0,1-1.4,1.21,18.67,18.67,0,0,0,7.1.27c14.34-1.86,27.67-10,38-19.86C140.17,94.14,151.72,66.93,148.53,40.62Z"/><path class="cls-2" d="M52.86,131.74c-3.4-4.45-14.76-23.52-18.62-30l-.22.15a4.69,4.69,0,0,1-6.65-1.12l-1-1.49L18.11,87.06a1.63,1.63,0,0,1,.43-2.22,1.53,1.53,0,0,1,2.18.36l7.52,11.12a1.27,1.27,0,0,0,1.81.3,1.35,1.35,0,0,0,.35-1.84L22.88,83.66a1.63,1.63,0,0,1,.43-2.23,1.54,1.54,0,0,1,2.18.37L33,92.92a1.27,1.27,0,0,0,1.8.3h0a1.35,1.35,0,0,0,.36-1.84L27.64,80.26A1.64,1.64,0,0,1,28.07,78a1.54,1.54,0,0,1,2.18.36l8.25,12.2,1,1.48a5,5,0,0,1-1.29,6.8l-.4.29c4.78,5.51,19,22,22.49,27a30.73,30.73,0,0,0,1.31-10.56A64.64,64.64,0,0,0,39.36,68.33c-6.17-5.27-13.26-9.28-20.31-13.26L6.77,48.13a2.4,2.4,0,0,0-3.5,1.48C-2.31,71,4.4,94.76,18.36,111.91,25.79,121,35.85,129,47.36,132a14.76,14.76,0,0,0,6.1.45A6.62,6.62,0,0,1,52.86,131.74Z"/><path class="cls-2" d="M76.41,2.12a2,2,0,0,0-3.2.09l-6.76,9.2C62.55,16.73,58.62,22.08,55.8,28a52.17,52.17,0,0,0-.72,42.34c1.89,4.37,4.28,8.05,7.36,9.37-.31-2.29-.5-4.62-.67-6.91A116.56,116.56,0,0,1,61.94,54a106.63,106.63,0,0,1,3.23-18,67.18,67.18,0,0,1,7.31-17c.21-.37.74-.08.65.3-2.87,11.57-5.44,23.49-6.19,35.42a115.66,115.66,0,0,0,.18,17.06c.22,2.6.6,5.18,1,7.76a14.27,14.27,0,0,0,3.07-1.92C78.73,71.55,83.54,62.28,86,53,90.63,35.72,87.67,16,76.41,2.12Z"/><path class="cls-3" d="M111.46,32.68a20.66,20.66,0,0,0-12.65,5.23c-2.67,2.49-7.56,10.17-5.28,14.22.39-.9.81-1.79,1.28-2.65a34.44,34.44,0,0,1,3.8-5.62,25.21,25.21,0,0,1,5-4.7c.89-.62,1.81-1.21,2.75-1.75a6.26,6.26,0,0,1,2.84-1.17.06.06,0,0,1,.06.09,8.18,8.18,0,0,1-2.18,1.77,27.15,27.15,0,0,0-2.61,2.18A52.57,52.57,0,0,0,100,44.9a33.35,33.35,0,0,0-3.63,5.35,31.8,31.8,0,0,0-1.45,3h0c3.42.77,10.73-5,12.52-6.72a21.73,21.73,0,0,0,6.2-11.4A2.1,2.1,0,0,0,111.46,32.68Z"/><path class="cls-3" d="M40.25,51.85a54.11,54.11,0,0,0-3.53-5.08c-1.24-1.61-2.8-3-4-4.61-.11-.15,0-.44.24-.34A20.17,20.17,0,0,1,38,46a32.52,32.52,0,0,1,4.21,5.49,40.4,40.4,0,0,1,4.37,9.6c2.15-4.25-1.23-12.4-3.44-15.36a22.6,22.6,0,0,0-13-8.17,2,2,0,0,0-2.37,1.89,23.49,23.49,0,0,0,4.4,13.81c1.63,2.32,8.88,10.48,12.56,9.56A39.43,39.43,0,0,0,40.25,51.85Z"/><text class="cls-4" transform="translate(166.49 94.3)">s<tspan class="cls-5" x="31.29" y="0">o</tspan><tspan class="cls-6" x="68.04" y="0">f</tspan><tspan class="cls-7" x="94.99" y="0">r</tspan><tspan class="cls-3" x="122.01" y="0">esh</tspan></text></g></svg>